[Header]
FileType HTR
DataType HTRS
FileVersion 1
NumSegments 64
NumFrames 3
DataFrameRate 24
EulerRotationOrder ZYX
CalibrationUnits mm
RotationUnits Degrees
GlobalAxisofGravity Y
BoneLengthAxis Y
ScaleFactor 1.0
[SegmentNames&Hierarchy]
Hips	GLOBAL
Spine	Hips
Spine1	Spine
Spine2	Spine1
Neck	Spine2
Head	Neck
LeftEye	Head
RightEye	Head
LeftShoulder	Spine2
LeftArm	LeftShoulder
LeftForeArm	LeftArm
LeftHand	LeftForeArm
LeftHandThumb1	LeftHand
LeftHandThumb2	LeftHandThumb1
LeftHandThumb3	LeftHandThumb2
LeftHandThumb4	LeftHandThumb3
LeftHandIndex1	LeftHand
LeftHandIndex2	LeftHandIndex1
LeftHandIndex3	LeftHandIndex2
LeftHandIndex4	LeftHandIndex3
LeftHandMiddle1	LeftHand
LeftHandMiddle2	LeftHandMiddle1
LeftHandMiddle3	LeftHandMiddle2
LeftHandMiddle4	LeftHandMiddle3
LeftHandRing1	LeftHand
LeftHandRing2	LeftHandRing1
LeftHandRing3	LeftHandRing2
LeftHandRing4	LeftHandRing3
LeftHandPinky1	LeftHand
LeftHandPinky2	LeftHandPinky1
LeftHandPinky3	LeftHandPinky2
LeftHandPinky4	LeftHandPinky3
RightShoulder	Spine2
RightArm	RightShoulder
RightForeArm	RightArm
RightHand	RightForeArm
RightHandPinky1	RightHand
RightHandPinky2	RightHandPinky1
RightHandPinky3	RightHandPinky2
RightHandPinky4	RightHandPinky3
RightHandRing1	RightHand
RightHandRing2	RightHandRing1
RightHandRing3	RightHandRing2
RightHandRing4	RightHandRing3
RightHandMiddle1	RightHand
RightHandMiddle2	RightHandMiddle1
RightHandMiddle3	RightHandMiddle2
RightHandMiddle4	RightHandMiddle3
RightHandIndex1	RightHand
RightHandIndex2	RightHandIndex1
RightHandIndex3	RightHandIndex2
RightHandIndex4	RightHandIndex3
RightHandThumb1	RightHand
RightHandThumb2	RightHandThumb1
RightHandThumb3	RightHandThumb2
RightHandThumb4	RightHandThumb3
LeftUpLeg	Hips
LeftLeg	LeftUpLeg
LeftFoot	LeftLeg
LeftToeBase	LeftFoot
RightUpLeg	Hips
RightLeg	RightUpLeg
RightFoot	RightLeg
RightToeBase	RightFoot
[BasePosition]
Hips	0	0	0	0	0	0	1
Spine	0	0	0	0	0	0	1
Spine1	0	0	0	0	0	0	1
Spine2	0	0	0	0	0	0	1
Neck	0	0	0	0	0	0	1
Head	0	0	0	0	0	0	1
LeftEye	0	0	0	0	0	0	1
RightEye	0	0	0	0	0	0	1
LeftShoulder	0	0	0	0	0	0	1
LeftArm	0	0	0	0	0	0	1
LeftForeArm	0	0	0	0	0	0	1
LeftHand	0	0	0	0	0	0	1
LeftHandThumb1	0	0	0	0	0	0	1
LeftHandThumb2	0	0	0	0	0	0	1
LeftHandThumb3	0	0	0	0	0	0	1
LeftHandThumb4	0	0	0	0	0	0	1
LeftHandIndex1	0	0	0	0	0	0	1
LeftHandIndex2	0	0	0	0	0	0	1
LeftHandIndex3	0	0	0	0	0	0	1
LeftHandIndex4	0	0	0	0	0	0	1
LeftHandMiddle1	0	0	0	0	0	0	1
LeftHandMiddle2	0	0	0	0	0	0	1
LeftHandMiddle3	0	0	0	0	0	0	1
LeftHandMiddle4	0	0	0	0	0	0	1
LeftHandRing1	0	0	0	0	0	0	1
LeftHandRing2	0	0	0	0	0	0	1
LeftHandRing3	0	0	0	0	0	0	1
LeftHandRing4	0	0	0	0	0	0	1
LeftHandPinky1	0	0	0	0	0	0	1
LeftHandPinky2	0	0	0	0	0	0	1
LeftHandPinky3	0	0	0	0	0	0	1
LeftHandPinky4	0	0	0	0	0	0	1
RightShoulder	0	0	0	0	0	0	1
RightArm	0	0	0	0	0	0	1
RightForeArm	0	0	0	0	0	0	1
RightHand	0	0	0	0	0	0	1
RightHandPinky1	0	0	0	0	0	0	1
RightHandPinky2	0	0	0	0	0	0	1
RightHandPinky3	0	0	0	0	0	0	1
RightHandPinky4	0	0	0	0	0	0	1
RightHandRing1	0	0	0	0	0	0	1
RightHandRing2	0	0	0	0	0	0	1
RightHandRing3	0	0	0	0	0	0	1
RightHandRing4	0	0	0	0	0	0	1
RightHandMiddle1	0	0	0	0	0	0	1
RightHandMiddle2	0	0	0	0	0	0	1
RightHandMiddle3	0	0	0	0	0	0	1
RightHandMiddle4	0	0	0	0	0	0	1
RightHandIndex1	0	0	0	0	0	0	1
RightHandIndex2	0	0	0	0	0	0	1
RightHandIndex3	0	0	0	0	0	0	1
RightHandIndex4	0	0	0	0	0	0	1
RightHandThumb1	0	0	0	0	0	0	1
RightHandThumb2	0	0	0	0	0	0	1
RightHandThumb3	0	0	0	0	0	0	1
RightHandThumb4	0	0	0	0	0	0	1
LeftUpLeg	0	0	0	0	0	0	1
LeftLeg	0	0	0	0	0	0	1
LeftFoot	0	0	0	0	0	0	1
LeftToeBase	0	0	0	0	0	0	1
RightUpLeg	0	0	0	0	0	0	1
RightLeg	0	0	0	0	0	0	1
RightFoot	0	0	0	0	0	0	1
RightToeBase	0	0	0	0	0	0	1
[Hips]
6	16.59960938	971.5814819	351.3772888	4.033255577	-3.517251492	-3.426996469	1.0
7	22.8144722	961.6152344	431.0657959	2.820638657	-3.117830992	-2.383949518	1.0
8	31.67456436	958.8494263	514.8119507	1.897812724	-2.389091492	-1.634652376	1.0
[Spine]
6	0	101.8159943	1.315000057	3.875769138	4.129690647	3.623755217	1.0
7	0	101.8159943	1.315000057	3.950697899	4.352053642	1.701120853	1.0
8	0	101.8159943	1.315000057	3.435620546	4.088677406	-0.02862601914	1.0
[Spine1]
6	0	100.8349991	-10.00800037	1.996122122	1.902036071	-1.670081496	1.0
7	0	100.8349991	-10.00800037	2.009170055	2.529592991	-1.508028507	1.0
8	0	100.8349991	-10.00800037	1.593643904	2.555053473	-0.9458018541	1.0
[Spine2]
6	0	91	-13.73399925	1.939731717	1.873026729	-1.685837388	1.0
7	0	91	-13.73399925	1.956762075	2.507529497	-1.550696611	1.0
8	0	91	-13.73399925	1.567191005	2.572613239	-0.9457933903	1.0
[Neck]
6	0	166.7169952	-25.16200066	-0.768943429	-0.163266778	1.005305052	1.0
7	0	166.7169952	-25.16200066	-0.6693623662	-0.4577015042	0.4623335302	1.0
8	0	166.7169952	-25.16200066	-0.248378098	-0.3672333956	-1.072247028	1.0
[Head]
6	0	96.17900085	16.84999847	-5.560062408	0.2984746695	-2.387416601	1.0
7	0	96.17900085	16.84999847	-5.809350014	-0.8779770136	-1.480688572	1.0
8	0	96.17900085	16.84999847	-4.395074844	-1.704299212	0.2250356525	1.0
[LeftEye]
6	30.6760006	64.09500122	92.83599854	0	0	0	1.0
7	30.6760006	64.09500122	92.83599854	0	0	0	1.0
8	30.6760006	64.09500122	92.83599854	0	0	0	1.0
[RightEye]
6	-30.6760006	64.09500122	92.83499908	0	0	0	1.0
7	-30.6760006	64.09500122	92.83499908	0	0	0	1.0
8	-30.6760006	64.09500122	92.83499908	0	0	0	1.0
[LeftShoulder]
6	45.70400238	109.4599991	-26.28000069	1.655120134	-4.641215801	-13.33482552	1.0
7	45.70400238	109.4599991	-26.28000069	1.812173009	-5.200430393	-13.88529968	1.0
8	45.70400238	109.4599991	-26.28000069	1.855341077	-5.314635277	-14.12717438	1.0
[LeftArm]
6	105.923996	-5.24600029	-22.32099915	13.72043991	13.16151428	-66.64095306	1.0
7	105.923996	-5.24600029	-22.32099915	13.99838829	12.3030138	-65.31179047	1.0
8	105.923996	-5.24600029	-22.32099915	15.61453819	11.05436707	-63.52934265	1.0
[LeftForeArm]
6	278.414978	-0.0009999999311	0	1.513156349e-06	-5.271904945	-0.0002135814721	1.0
7	278.414978	-0.0009999999311	0	2.684332912e-06	-4.087235928	-0.0002152625093	1.0
8	278.414978	-0.0009999999311	0	-6.023501101e-06	-4.940124512	-0.0001891752036	1.0
[LeftHand]
6	283.2879944	0	0	4.473137379	-0.1994667053	-17.69878578	1.0
7	283.2879944	0	0	7.53914547	4.002821922	-15.34248352	1.0
8	283.2879944	0	0	9.246050835	7.159588814	-14.80017281	1.0
[LeftHandThumb1]
6	24.6609993	-15.75	26.8239994	5.839803696	2.504242897	11.148386	1.0
7	24.6609993	-15.75	26.8239994	5.839803696	2.504242897	11.148386	1.0
8	24.6609993	-15.75	26.8239994	5.839803696	2.504242897	11.148386	1.0
[LeftHandThumb2]
6	32.29800034	-18.64699936	18.64699936	9.475485802	5.342046738	5.995136738	1.0
7	32.29800034	-18.64699936	18.64699936	9.370440483	6.467186928	5.977991581	1.0
8	32.29800034	-18.64699936	18.64699936	9.26663208	7.653678894	5.931559563	1.0
[LeftHandThumb3]
6	26.52600098	-15.31499958	15.31499958	-2.160636425	-11.07234955	20.97221375	1.0
7	26.52600098	-15.31499958	15.31499958	-2.024677038	-10.69955158	21.06852341	1.0
8	26.52600098	-15.31499958	15.31499958	-1.670374274	-9.766792297	21.19498062	1.0
[LeftHandThumb4]
6	19.54599953	-11.28499985	11.28499985	0	0	0	1.0
7	19.54599953	-11.28499985	11.28499985	0	0	0	1.0
8	19.54599953	-11.28499985	11.28499985	0	0	0	1.0
[LeftHandIndex1]
6	91.09299469	-5.170999527	22.60099792	-0.9176563025	-1.676264524	-22.8439846	1.0
7	91.09299469	-5.170999527	22.60099792	-0.8947457075	-1.455120564	-22.92706108	1.0
8	91.09299469	-5.170999527	22.60099792	-0.8918756843	-1.143831968	-23.37438393	1.0
[LeftHandIndex2]
6	36.76399994	0	0	-0.2046304494	1.53287065	-15.20662403	1.0
7	36.76399994	0	0	-0.2040303349	1.530677438	-15.18422508	1.0
8	36.76399994	0	0	-0.2026446611	1.525561094	-15.13228226	1.0
[LeftHandIndex3]
6	28.83100128	0	0	-0.2046330124	1.532879353	-15.20662117	1.0
7	28.83100128	0	0	-0.2040364295	1.530681133	-15.18422222	1.0
8	28.83100128	0	0	-0.202643618	1.525560379	-15.13225269	1.0
[LeftHandIndex4]
6	23.92700005	0	0	0	0	0	1.0
7	23.92700005	0	0	0	0	0	1.0
8	23.92700005	0	0	0	0	0	1.0
[LeftHandMiddle1]
6	95.33399963	0	0	-1.92117238	5.242022991	-30.19031715	1.0
7	95.33399963	0	0	-1.919173598	4.991715908	-30.16681671	1.0
8	95.33399963	0	0	-1.948043227	4.857748985	-30.49727821	1.0
[LeftHandMiddle2]
6	36.98199844	0	0	-0.1260173768	1.207099438	-11.91951275	1.0
7	36.98199844	0	0	-0.1250456274	1.202491283	-11.87319374	1.0
8	36.98199844	0	0	-0.1251691431	1.203112364	-11.87938213	1.0
[LeftHandMiddle3]
6	29.50900078	0	0	-0.1713944525	1.404953837	-13.91018867	1.0
7	29.50900078	0	0	-0.1702579856	1.400362015	-13.86389351	1.0
8	29.50900078	0	0	-0.1704138815	1.400968909	-13.8700695	1.0
[LeftHandMiddle4]
6	28.3390007	0	0	0	0	0	1.0
7	28.3390007	0	0	0	0	0	1.0
8	28.3390007	0	0	0	0	0	1.0
[LeftHandRing1]
6	91.04499817	-0.4390000105	-18.65100098	-2.016514778	7.346168041	-31.30866432	1.0
7	91.04499817	-0.4390000105	-18.65100098	-2.024918795	7.235677719	-31.40008926	1.0
8	91.04499817	-0.4390000105	-18.65100098	-2.046204805	7.081962109	-31.63522911	1.0
[LeftHandRing2]
6	31.54000092	0	0	-0.3269659281	1.927122355	-19.25707245	1.0
7	31.54000092	0	0	-0.3259886205	1.924331546	-19.2281971	1.0
8	31.54000092	0	0	-0.3250877559	1.921730995	-19.20102882	1.0
[LeftHandRing3]
6	29.37700081	0	0	-0.3971016705	2.117110252	-21.24456215	1.0
7	29.37700081	0	0	-0.3960567117	2.114403725	-21.21613693	1.0
8	29.37700081	0	0	-0.3950701058	2.111881256	-21.18959618	1.0
[LeftHandRing4]
6	26.47500038	0	0	0	0	0	1.0
7	26.47500038	0	0	0	0	0	1.0
8	26.47500038	0	0	0	0	0	1.0
[LeftHandPinky1]
6	80.77799988	-4.887000084	-38.06099701	-2.663791656	8.422075272	-35.49153137	1.0
7	80.77799988	-4.887000084	-38.06099701	-2.621195793	7.888534069	-35.52005386	1.0
8	80.77799988	-4.887000084	-38.06099701	-2.541697025	6.933683872	-35.54241562	1.0
[LeftHandPinky2]
6	36	0	0	-0.2714516521	1.760281086	-17.53195381	1.0
7	36	0	0	-0.2708876133	1.758485079	-17.51345062	1.0
8	36	0	0	-0.2685464025	1.751045942	-17.43679619	1.0
[LeftHandPinky3]
6	21.14200211	0	0	-0.2714605927	1.760294676	-17.53194237	1.0
7	21.14200211	0	0	-0.2708873451	1.758492589	-17.51344872	1.0
8	21.14200211	0	0	-0.2685328126	1.751026988	-17.43680763	1.0
[LeftHandPinky4]
6	19.75699997	0	0	0	0	0	1.0
7	19.75699997	0	0	0	0	0	1.0
8	19.75699997	0	0	0	0	0	1.0
[RightShoulder]
6	-45.70000076	109.4620056	-26.28000069	2.308559179	7.759837627	13.53168106	1.0
7	-45.70000076	109.4620056	-26.28000069	2.198208809	7.417847157	13.1256094	1.0
8	-45.70000076	109.4620056	-26.28000069	2.07019496	6.760017872	13.17251205	1.0
[RightArm]
6	-105.9280014	-5.248000145	-22.32099915	23.49884605	28.03335762	39.78633499	1.0
7	-105.9280014	-5.248000145	-22.32099915	23.04486465	26.43168831	40.95288467	1.0
8	-105.9280014	-5.248000145	-22.32099915	24.60346794	22.90485191	44.29190826	1.0
[RightForeArm]
6	-278.414978	0	0	-3.618441951e-06	33.13475037	7.603282938e-06	1.0
7	-278.414978	0	0	1.882634024e-06	30.58513832	1.498994334e-05	1.0
8	-278.414978	0	0	5.866977517e-06	26.91472054	1.062708361e-05	1.0
[RightHand]
6	-283.2879944	0	0.0009999999311	0.8695011735	0.01441314351	6.966258526	1.0
7	-283.2879944	0	0.0009999999311	1.944469213	3.031775713	3.79384017	1.0
8	-283.2879944	0	0.0009999999311	2.97302556	7.2905159	1.823233128	1.0
[RightHandPinky1]
6	-80.76699829	-4.885000229	-38.06000137	-2.472914934	-0.4000648856	31.07559967	1.0
7	-80.76699829	-4.885000229	-38.06000137	-2.210687399	-1.455814838	30.07170868	1.0
8	-80.76699829	-4.885000229	-38.06000137	-1.943358183	-2.49852705	28.98400688	1.0
[RightHandPinky2]
6	-36	0	0.0009999999311	-0.5695888996	-2.226873636	28.71185684	1.0
7	-36	0	0.0009999999311	-0.5815727115	-2.248592377	29.01861763	1.0
8	-36	0	0.0009999999311	-0.5745581985	-2.235898733	28.83918381	1.0
[RightHandPinky3]
6	-21.14200211	0	0	-0.1779788733	-1.272761941	15.92081261	1.0
7	-21.14200211	0	0	-0.1854899526	-1.298740983	16.25497818	1.0
8	-21.14200211	0	0	-0.1819912493	-1.286658406	16.0997715	1.0
[RightHandPinky4]
6	-19.75699997	0	0	0	0	0	1.0
7	-19.75699997	0	0	0	0	0	1.0
8	-19.75699997	0	0	0	0	0	1.0
[RightHandRing1]
6	-91.03599548	-0.4390000105	-18.65100098	-1.496726871	-1.517119169	27.03768539	1.0
7	-91.03599548	-0.4390000105	-18.65100098	-1.405609965	-1.924686909	25.75391388	1.0
8	-91.03599548	-0.4390000105	-18.65100098	-1.281683803	-2.378040075	23.98126602	1.0
[RightHandRing2]
6	-31.54000092	0	0	-1.506797075	-3.419888735	47.54616928	1.0
7	-31.54000092	0	0	-1.506534696	-3.419656992	47.54191589	1.0
8	-31.54000092	0	0	-1.505481958	-3.418686867	47.52423477	1.0
[RightHandRing3]
6	-29.37700081	0	0	-0.3768235743	-1.831383109	23.25198555	1.0
7	-29.37700081	0	0	-0.3767490685	-1.831228375	23.24990082	1.0
8	-29.37700081	0	0	-0.3762620389	-1.830073595	23.23425484	1.0
[RightHandRing4]
6	-26.47500038	0	0	0	0	0	1.0
7	-26.47500038	0	0	0	0	0	1.0
8	-26.47500038	0	0	0	0	0	1.0
[RightHandMiddle1]
6	-95.32500458	0	0	-1.284602404	0.09483412653	24.12801361	1.0
7	-95.32500458	0	0	-1.189518213	-0.06954988837	22.73671913	1.0
8	-95.32500458	0	0	-1.064207435	-0.1538902819	20.86596489	1.0
[RightHandMiddle2]
6	-36.98199844	0	0	-0.8697085381	-2.703439236	35.6612587	1.0
7	-36.98199844	0	0	-0.8688443899	-2.70224452	35.64289474	1.0
8	-36.98199844	0	0	-0.8592028022	-2.688758612	35.43797684	1.0
[RightHandMiddle3]
6	-29.50900078	0	0	-0.3044007719	-1.6547966	20.87015533	1.0
7	-29.50900078	0	0	-0.3038892448	-1.653447986	20.8524456	1.0
8	-29.50900078	0	0	-0.298042208	-1.638021231	20.64832306	1.0
[RightHandMiddle4]
6	-28.3390007	0	0.0009999999311	0	0	0	1.0
7	-28.3390007	0	0.0009999999311	0	0	0	1.0
8	-28.3390007	0	0.0009999999311	0	0	0	1.0
[RightHandIndex1]
6	-91.08300018	-5.167999744	22.60099792	-1.278668404	4.987689972	24.51154137	1.0
7	-91.08300018	-5.167999744	22.60099792	-1.142482042	4.833052635	22.52349472	1.0
8	-91.08300018	-5.167999744	22.60099792	-0.9204719663	4.613403797	19.75494576	1.0
[RightHandIndex2]
6	-36.76399994	0	0	-0.3906955123	-1.863342404	23.68237877	1.0
7	-36.76399994	0	0	-0.39086923	-1.863700867	23.68741226	1.0
8	-36.76399994	0	0	-0.3874964714	-1.856003761	23.58356285	1.0
[RightHandIndex3]
6	-28.83100128	0	0	-0.0765311718	-0.8392047286	10.41940117	1.0
7	-28.83100128	0	0	-0.07659254223	-0.8396089673	10.42437649	1.0
8	-28.83100128	0	0	-0.07508575916	-0.8313448429	10.32065201	1.0
[RightHandIndex4]
6	-23.92700005	0	0	0	0	0	1.0
7	-23.92700005	0	0	0	0	0	1.0
8	-23.92700005	0	0	0	0	0	1.0
[RightHandThumb1]
6	-24.64799881	-15.72700024	26.82600021	12.78110313	-2.167885065	-4.410644054	1.0
7	-24.64799881	-15.72700024	26.82600021	12.78110313	-2.167885065	-4.410644054	1.0
8	-24.64799881	-15.72700024	26.82600021	12.78110313	-2.167885065	-4.410644054	1.0
[RightHandThumb2]
6	-32.29800034	-18.64699936	18.64699936	8.306008339	-15.39417839	-9.112651825	1.0
7	-32.29800034	-18.64699936	18.64699936	8.134758949	-17.01140022	-9.525053024	1.0
8	-32.29800034	-18.64699936	18.64699936	7.611898422	-17.58649635	-10.0274334	1.0
[RightHandThumb3]
6	-26.52600098	-15.31399918	15.31399918	-15.59144783	-4.597165585	-11.32449341	1.0
7	-26.52600098	-15.31399918	15.31399918	-15.55785751	-4.676700115	-11.2994318	1.0
8	-26.52600098	-15.31399918	15.31399918	-15.51767826	-4.771822929	-11.26940823	1.0
[RightHandThumb4]
6	-19.54599953	-11.28499985	11.28499985	0	0	0	1.0
7	-19.54599953	-11.28499985	11.28499985	0	0	0	1.0
8	-19.54599953	-11.28499985	11.28499985	0	0	0	1.0
[LeftUpLeg]
6	82.07800293	-67.51699829	-15.99599934	-40.90654755	6.45010376	0.5229413509	1.0
7	82.07800293	-67.51699829	-15.99599934	-36.84350204	6.161644459	-0.8105745912	1.0
8	82.07800293	-67.51699829	-15.99599934	-34.88297653	5.303612709	-1.758417726	1.0
[LeftLeg]
6	0	-443.7049866	2.845999956	7.341566086	0.8832461834	3.035927534	1.0
7	0	-443.7049866	2.845999956	8.405230522	-2.857525587	1.341352344	1.0
8	0	-443.7049866	2.845999956	13.50017548	-3.820573807	0.09166364372	1.0
[LeftFoot]
6	0	-444.2789917	-29.8219986	-5.495543003	0.01289528795	-5.040637493	1.0
7	0	-444.2789917	-29.8219986	6.928427219	0.2691062391	-2.245531559	1.0
8	0	-444.2789917	-29.8219986	16.88504219	-0.06749596447	1.098975301	1.0
[LeftToeBase]
6	0	-87.28699493	107.1060028	-8.378539085	1.708340164e-06	-5.14552255e-07	1.0
7	0	-87.28699493	107.1060028	-10.15493393	8.635446989e-07	-8.229282003e-07	1.0
8	0	-87.28699493	107.1060028	-9.535380363	-4.247075083e-07	-5.86383031e-08	1.0
[RightUpLeg]
6	-82.07800293	-67.51699829	-15.99599934	8.472598076	-13.84907532	-0.1378923953	1.0
7	-82.07800293	-67.51699829	-15.99599934	16.03954315	-15.01640415	-2.677975178	1.0
8	-82.07800293	-67.51699829	-15.99599934	20.87194252	-15.8706398	-4.923435211	1.0
[RightLeg]
6	0	-443.7049866	2.861999989	15.46833611	1.66368258	-3.44835186	1.0
7	0	-443.7049866	2.861999989	11.94817257	3.147273779	-5.194456577	1.0
8	0	-443.7049866	2.861999989	12.12203598	6.871803761	-5.775045395	1.0
[RightFoot]
6	0	-444.2770081	-29.83799934	-22.96386528	13.74464321	0.09087861329	1.0
7	0	-444.2770081	-29.83799934	-16.3982811	12.97716618	2.789229393	1.0
8	0	-444.2770081	-29.83799934	-4.021965027	7.529764175	6.790966511	1.0
[RightToeBase]
6	0	-87.28699493	107.1060028	-8.05714035	2.741036951e-06	-1.428878591e-06	1.0
7	0	-87.28699493	107.1060028	-13.84463787	0.1364766061	0.5903596282	1.0
8	0	-87.28699493	107.1060028	-25.32148361	-0.08108404279	-0.1885222048	1.0
[EndOfFile]
